<?xml version="1.0" encoding="UTF-8"?>
<svg width="181px" height="50px" viewBox="0 0 181 50" version="1.1" xmlns="http://www.w3.org/2000/svg" xmlns:xlink="http://www.w3.org/1999/xlink">
    <!-- Generator: Sketch 47.1 (45422) - http://www.bohemiancoding.com/sketch -->
    <title>logo-reversed2x</title>
    <desc>Created with Sketch.</desc>
    <defs></defs>
    <g id="Page-1" stroke="none" stroke-width="1" fill="none" fill-rule="evenodd">
        <g id="spinnaker" transform="translate(-130.000000, -40.000000)">
            <g id="Header" transform="translate(130.000000, 40.000000)">
                <g id="logo-reversed">
                    <path d="M59.9782413,31.096836 L59.8637661,31.0581164 C58.444611,32.8611 56.1046044,33.9351462 53.3420499,33.9351462 C49.0458651,33.9351462 46.2075549,31.55642 46.2075549,26.4168228 C46.2075549,22.0819184 49.1233041,19.2823278 54.4935351,19.2823278 C56.1195036,19.2795974 57.7363371,19.5254152 59.2880235,20.0112651 L59.2880235,18.2840372 C59.2880235,15.4070075 57.9075879,14.2555223 54.4548156,14.2555223 C51.9616143,14.2555223 50.1586308,14.6393507 48.0492579,15.5602022 L47.62671,11.5316872 C49.8892775,10.5339578 52.4593567,10.0350931 55.3369476,10.0350931 C61.7812248,10.0350931 64.1212314,12.7976476 64.1212314,19.0112911 L64.1212314,33.5513177 L60.4007892,33.5513177 L59.9782413,31.096836 Z M59.2880235,23.3865984 C58.7122808,23.1172451 57.2931258,22.7351001 55.3756671,22.7351001 C52.2309676,22.7351001 50.810129,24.0010606 50.810129,26.3410672 C50.810129,29.0345999 52.4211983,29.9857537 54.6820824,29.9857537 C57.0978446,29.9857537 59.2846566,28.4521235 59.2846566,26.7636151 L59.2880235,23.3865984 Z" id="Shape" fill="#FFFFFF" fill-rule="nonzero"></path>
                    <path d="M67.8046374,33.5513177 L67.8046374,10.6057853 L71.7153104,10.3818854 L72.1378583,14.7167897 L72.2523335,14.7167897 C73.6714885,11.7252849 76.0502147,10.1142156 78.8885248,10.1142156 C79.7066171,10.0981751 80.5226832,10.2013885 81.3110209,10.420605 L81.0046315,15.368288 C80.2216507,15.1188677 79.405544,14.9889035 78.583819,14.9827761 C75.2472052,14.9827761 72.6765649,17.5904525 72.6765649,21.9253569 L72.6765649,33.541217 L67.8046374,33.5513177 Z" id="Shape" fill="#FFFFFF" fill-rule="nonzero"></path>
                    <path d="M110.114987,33.5513177 L110.114987,18.5533905 C110.114987,15.7908359 108.581357,14.5248755 106.049436,14.5248755 C103.823905,14.5248755 102.13708,15.7521164 102.13708,18.2840372 L102.13708,33.5513177 L97.2651523,33.5513177 L97.2651523,18.2840372 C97.2651523,15.5602022 95.654083,14.486156 93.3527959,14.486156 C91.7030071,14.486156 90.0532182,15.327885 89.2485253,16.5955289 L89.2485253,33.5513177 L84.3749144,33.5513177 L84.3749144,10.5737996 L87.8647228,10.3431659 L88.7064518,12.644453 C90.2633117,11.0245791 92.4058271,10.0982991 94.6524255,10.0738126 C97.6439303,10.0738126 99.638828,11.1478588 100.829033,13.3733903 C102.286907,11.1108227 104.588195,10.0738126 107.350749,10.0738126 C111.838848,10.0738126 114.985231,12.8363672 114.985231,18.474268 L114.985231,33.5513177 L110.114987,33.5513177 Z" id="Shape" fill="#FFFFFF" fill-rule="nonzero"></path>
                    <path d="M128.604406,34.0883408 C121.469911,34.0883408 118.247773,30.6355685 118.247773,22.0819184 C118.247773,13.5669879 121.469911,10.0367765 128.604406,10.0367765 C135.777621,10.0367765 138.846565,13.5720383 138.846565,22.0819184 C138.846565,30.6389354 135.777621,34.0883408 128.604406,34.0883408 Z M128.604406,29.9840703 C132.402287,29.9840703 133.823126,28.1423672 133.823126,22.0819184 C133.823126,16.0214697 132.403971,14.1797666 128.604406,14.1797666 C124.767805,14.1797666 123.311614,16.0214697 123.311614,22.0819184 C123.311614,28.1423672 124.806525,29.9840703 128.604406,29.9840703 Z" id="Shape" fill="#FFFFFF" fill-rule="nonzero"></path>
                    <path d="M142.452532,33.5513177 L142.452532,10.6057853 L146.364888,10.3751516 L146.787436,14.7100559 L146.901911,14.7100559 C148.321066,11.7185511 150.699792,10.1074818 153.538102,10.1074818 C154.354836,10.094123 155.169171,10.199601 155.955548,10.420605 L155.649159,15.368288 C154.867255,15.1192015 154.052308,14.9892414 153.231713,14.9827761 C149.895099,14.9827761 147.324459,17.5904525 147.324459,21.9253569 L147.324459,33.541217 L142.452532,33.5513177 Z" id="Shape" fill="#FFFFFF" fill-rule="nonzero"></path>
                    <path d="M167.079839,33.5900373 L167.194314,33.2449284 L157.182789,10.4593245 L162.790388,10.4593245 L168.514145,25.8040441 L169.549471,28.7197933 L169.663947,28.7197933 L170.431603,25.7282885 L174.911285,10.4593245 L180.130005,10.4593245 L171.960183,33.6287568 C170.276725,38.1555753 167.817193,39.8424002 164.172507,39.8424002 C162.882349,39.8640142 161.601917,39.6157263 160.413345,39.1134629 L160.835893,35.5462154 C161.608658,35.9355841 162.463848,36.133069 163.329094,36.1219581 C164.970466,36.1219581 166.197707,35.5462154 167.079839,33.5900373 Z" id="Shape" fill="#FFFFFF" fill-rule="nonzero"></path>
                    <path d="M32.4907392,10.277511 L30.5463452,9.38022792 L30.5463452,5.62780006 L20.7519866,3.42920392 L20.7519866,3.42920392 L10.9576281,5.62780006 L10.9576281,9.38191138 L9.01323408,10.277511 L3.69350683,12.7336762 C3.62448505,13.3902248 3.56219711,14.2336373 3.52516103,15.2201437 C3.47675631,16.9542861 3.54988513,18.6896893 3.74401057,20.4136116 C9.36956445,18.135354 15.8239682,19.9072458 19.4978104,24.7384152 C19.911079,24.6949189 20.3263347,24.6730041 20.7418859,24.6727603 C22.864641,24.6702813 24.9484455,25.2427167 26.7720324,26.329283 C27.2079758,26.5884271 27.6268904,26.8752009 28.0262086,27.1878465 C30.6089421,25.678076 33.7373885,25.4223261 36.5310384,26.4925784 C36.7195857,25.8562313 36.8929818,25.2114669 37.0461765,24.5582852 C37.3873753,23.0950902 37.6358986,21.6118219 37.7902649,20.117323 C38.050383,17.6628418 38.0588443,15.1881954 37.8155168,12.7319928 L32.4907392,10.277511 Z" id="Shape" fill="#FFFFFF" fill-rule="nonzero"></path>
                    <path d="M33.8913762,7.23886936 L33.8913762,2.9494184 L20.7519866,0 L20.7519866,0 L7.61091357,2.9494184 L7.61091357,7.23886936 L0.638030578,10.4593245 C0.638030578,10.4593245 0.111108227,12.9962957 0.168345799,16.9019182 C0.197004733,18.679509 0.343223662,20.4532571 0.606044876,22.2115447 C0.874643879,23.9945491 1.26842401,25.7564339 1.78446547,27.4841351 C3.80461506,34.261737 8.16645471,41.8440318 17.2184083,47.7782212 C18.3261237,48.5037916 19.5011774,49.207477 20.7536701,49.8791768 L20.7536701,49.8791768 C22.0044794,49.2057936 23.1795331,48.5054751 24.2889319,47.7799047 C31.8291402,42.837272 36.1152243,36.7515714 38.5040511,30.9453248 C38.8732896,30.0474805 39.1993193,29.1580535 39.4821402,28.2770439 C40.1733136,26.1222708 40.6724417,23.9105585 40.973684,21.6677878 C41.8507656,15.1915249 40.8693096,10.4660583 40.8693096,10.4660583 L33.8913762,7.23886936 Z M37.7835311,20.117323 C37.6280553,21.6118943 37.3784072,23.0951633 37.0360758,24.5582852 C36.8828811,25.2114669 36.7094849,25.8562313 36.5209376,26.4925784 C33.7331951,25.4272615 30.6129843,25.6816568 28.0346259,27.1844796 C27.6353077,26.871834 27.2163931,26.5850602 26.7804497,26.325916 C24.9568628,25.2393498 22.8730583,24.6669144 20.7503032,24.6693934 C20.334752,24.6696372 19.9194963,24.6915519 19.5062277,24.7350482 C15.8313562,19.9054022 9.37808898,18.1338224 3.75242786,20.4102447 C3.55894311,18.6868404 3.48637694,16.9520026 3.53526178,15.2184602 C3.56388056,14.2319538 3.62785197,13.3885414 3.70360758,12.7319928 L9.02333482,10.277511 L10.9677288,9.38022792 L10.9677288,5.62780006 L20.7620874,3.42920392 L20.7620874,3.42920392 L30.556446,5.62780006 L30.556446,9.38191138 L32.4907392,10.277511 L37.808783,12.7319928 C38.0522256,15.1887523 38.0437643,17.6639687 37.7835311,20.1190064 L37.7835311,20.117323 Z" id="Shape" fill="#0065A1" fill-rule="nonzero"></path>
                    <path d="M20.4977845,19.9102576 C21.9247236,18.0729818 24.0167802,16.8703516 26.3225491,16.5618597 C24.7569332,15.6628931 22.7637189,15.1225031 20.598792,15.1225031 C20.3092372,15.1225031 20.0213659,15.1326039 19.7385449,15.1528054 C18.0803388,13.2791166 15.7554833,12.1091133 13.1764257,12.1091133 C10.498044,12.1091133 8.0906991,13.3683399 6.43080952,15.3716549 C5.85011535,15.2044087 5.24895774,15.1188528 4.64466059,15.1174527 C4.27265976,15.1194769 3.90151142,15.1532688 3.53526178,15.2184602 C3.48685154,16.9526027 3.55998038,18.6880062 3.75411132,20.4119281 C6.88937529,19.1438378 10.3869803,19.1017704 13.5518368,20.2940861 C15.7019867,19.1690233 18.2351144,19.0290783 20.4977845,19.9102576 Z" id="Shape" fill="#4EC1E0" fill-rule="nonzero"></path>
                    <path d="M34.1051754,19.7503291 C32.4452858,17.7520645 30.0413078,16.4945214 27.3713435,16.4945214 C27.0229686,16.4949026 26.6749508,16.5168294 26.329283,16.5601762 C24.023514,16.8686682 21.9314575,18.0712984 20.5045183,19.9085742 C18.2418483,19.0273948 15.7087205,19.1673399 13.5568872,20.2924026 C15.9186172,21.1863583 17.9821695,22.7249821 19.5129616,24.7333648 C19.9262301,24.6898685 20.3414858,24.6679538 20.757037,24.6677099 C22.8797921,24.6652309 24.9635966,25.2376663 26.7871835,26.3242326 C27.2231294,26.5833729 27.6420442,26.8701468 28.0413597,27.1827962 C30.6208713,25.6794676 33.7425646,25.4256714 36.5310384,26.4925784 C36.7195857,25.8562313 36.8929818,25.2114669 37.0461765,24.5582852 C37.3873709,23.0950893 37.6358942,21.6118213 37.7902649,20.117323 C36.8180443,19.8563685 35.81549,19.7256006 34.8088609,19.7284442 C34.5714933,19.7284442 34.3374926,19.7368615 34.1051754,19.7503291 Z" id="Shape" fill="#009ABF" fill-rule="nonzero"></path>
                    <path d="M32.4907392,10.277511 L30.5463452,9.38022792 L30.5463452,5.62780006 L20.7519866,3.42920392 L10.9576281,5.62780006 L10.9576281,9.38191138 L9.01323408,10.277511 L3.69350683,12.7336762 C3.62448505,13.3902248 3.56219711,14.2336373 3.52516103,15.2201437 C3.47675631,16.9542861 3.54988513,18.6896893 3.74401057,20.4136116 C9.36956445,18.135354 15.8239682,19.9072458 19.4978104,24.7384152 C19.911079,24.6949189 20.3263347,24.6730041 20.7418859,24.6727603 C22.864641,24.6702813 24.9484455,25.2427167 26.7720324,26.329283 C27.2079758,26.5884271 27.6268904,26.8752009 28.0262086,27.1878465 C30.6089421,25.678076 33.7373885,25.4223261 36.5310384,26.4925784 C36.7195857,25.8562313 36.8929818,25.2114669 37.0461765,24.5582852 C37.3873753,23.0950902 37.6358986,21.6118219 37.7902649,20.117323 C38.050383,17.6628418 38.0588443,15.1881954 37.8155168,12.7319928 L32.4907392,10.277511 Z" id="Shape"></path>
                    <path d="M40.8642592,10.4593245 L33.8913762,7.23886936 L33.8913762,2.9494184 L20.7519866,0 L20.7519866,49.8791768 C22.0027959,49.2057936 23.1778496,48.5054751 24.2872484,47.7799047 C31.8274568,42.837272 36.1135408,36.7515714 38.5023677,30.9453248 C38.8716061,30.0474805 39.1976358,29.1580535 39.4804568,28.2770439 C40.1716301,26.1222708 40.6707583,23.9105585 40.9720005,21.6677878 C41.8457152,15.1847911 40.8642592,10.4593245 40.8642592,10.4593245 Z" id="Shape" fill="#103B47" fill-rule="nonzero" opacity="0.15"></path>
                </g>
            </g>
        </g>
    </g>
</svg>