<?xml version="1.0" standalone="no"?>
<!DOCTYPE svg PUBLIC "-//W3C//DTD SVG 20010904//EN"
 "http://www.w3.org/TR/2001/REC-SVG-20010904/DTD/svg10.dtd">
<svg version="1.0" xmlns="http://www.w3.org/2000/svg"
 width="800.000000pt" height="800.000000pt" viewBox="0 0 800.000000 800.000000"
 preserveAspectRatio="xMidYMid meet">
<metadata>
Created by potrace 1.11, written by Peter Selinger 2001-2013
</metadata>
<g transform="translate(0.000000,800.000000) scale(0.100000,-0.100000)"
fill="#000000" stroke="none">
<path d="M3790 7674 c-19 -2 -84 -9 -145 -15 -322 -31 -796 -152 -1109 -283
-491 -206 -1043 -621 -1367 -1028 -399 -501 -598 -904 -740 -1499 -145 -614
-145 -1084 0 -1698 142 -595 341 -998 740 -1499 323 -405 868 -815 1361 -1026
299 -127 758 -246 1115 -288 143 -17 567 -17 710 0 357 42 816 161 1115 288
493 211 1038 621 1361 1026 388 487 593 894 728 1451 91 374 116 564 116 897
0 333 -25 523 -116 897 -135 557 -340 964 -728 1451 -324 407 -876 822 -1367
1028 -302 127 -750 243 -1094 284 -96 11 -515 22 -580 14z m609 -448 c610 -81
1161 -314 1636 -692 141 -113 386 -358 499 -499 408 -512 652 -1126 705 -1778
14 -168 14 -170 -4 -163 -13 5 -15 -12 -15 -112 0 -403 -89 -843 -245 -1212
-129 -305 -332 -639 -516 -849 -21 -24 -37 -47 -34 -51 7 -11 -238 -253 -353
-349 -57 -47 -156 -123 -220 -168 -122 -86 -344 -217 -371 -219 -14 -2 -120
-50 -316 -144 -160 -76 -538 -172 -772 -196 -38 -4 -72 -13 -78 -21 -15 -20
-360 -29 -555 -14 -663 53 -1277 295 -1795 707 -141 113 -386 358 -499 499
-954 1196 -954 2874 0 4070 113 141 358 386 499 499 486 387 1085 635 1680
695 61 6 126 13 145 15 75 9 501 -4 609 -18z"/>
<path d="M3534 6456 c-80 -20 -193 -78 -260 -134 -76 -63 -157 -169 -185 -242
-44 -115 -79 -433 -79 -725 l0 -115 390 0 390 0 0 225 0 225 350 0 350 0 0
-401 0 -402 -232 -401 c-127 -221 -350 -605 -495 -855 l-263 -455 0 -298 0
-298 395 0 395 0 0 170 0 170 490 858 490 857 0 610 c0 691 0 691 -74 840 -79
159 -223 291 -384 354 l-67 26 -580 2 c-439 1 -592 -1 -631 -11z"/>
<path d="M3510 1930 l0 -410 390 0 390 0 0 410 0 410 -390 0 -390 0 0 -410z"/>
</g>
</svg>
