<svg xmlns="http://www.w3.org/2000/svg" viewBox="0 0 89.87 34.84"><defs><style>.cls-1{fill:#231f20;fill-rule:evenodd;}</style></defs><title>Asset 2</title><g id="Layer_2" data-name="Layer 2"><g id="Layer_1-2" data-name="Layer 1"><path class="cls-1" d="M0,34.36c0-1.21.07-2.57.07-4.05,0-1-.36-3,.31-3.49a7,7,0,0,1,2.06-.13c4.68-.14,10.92,0,15.65-.12.21,0-.17-.57.06-.81Q31.26,13.15,43.81,0c.93,0,1.4.81,1.94,1.37C52.63,8.65,59.82,15.84,66.89,23A44.26,44.26,0,0,1,70,26.32c6.15.08,13.39-.19,19.58-.06-.14,2.49.4,5.67.25,8.23a4.77,4.77,0,0,1-2.62.31c-2.54-.17-6,.09-9-.06-.89,0-1.8-.2-2.69-.25-6.49-.38-12.67-.19-18.95-.19-5.63,0-11.2.05-16.34.06-1.92,0-3.94-.19-5.74,0-.4,0-.49,0-.75.25-1.26-.44-3-.19-4.68-.18-9,0-19.91,0-28.81.06A.18.18,0,0,1,0,34.36Zm.75-.56c7.39.3,13.55-.06,21.14.07,1.93-1.89,4-4,5.93-5.87.29-.28.75-.55.69-.81a21.16,21.16,0,0,1-3.75.06c-7.54.08-16.38,0-23.95.13C.76,29.19.69,31.79.78,33.8Zm26.7-7.29c.68-.06,1.17-.19,1.55.31,3.7-3.52,7.34-7.28,11-10.85a41.25,41.25,0,0,0,4.05-4.24c1-.66,1.92.85,2.62,1.62,4.12,4.46,8.85,8.86,12.79,13.09,3.1-.15,6,0,9.35-.06a5.74,5.74,0,0,0-1.31-1.68c-1.61-1.56-3.1-3.18-4.61-4.8-2-2.18-4.19-4.22-6.24-6.37s-4.1-4.31-6.17-6.42S46.4,2.78,44.19.81C41.85,2.73,39.84,5,37.7,7.11c-3.21,3.2-6.37,6.5-9.54,9.67C26,18.93,24,21.17,21.8,23.26a34.85,34.85,0,0,0-3.18,3.25s-.08,0-.06.06C21.43,26.46,24.9,26.71,27.48,26.51Zm-4.31,7.36c3.34,0,7.07,0,10.23-.13,3.38-6.6,6.58-13.38,9.85-20.08A10.46,10.46,0,0,0,42,14.91c-3,3-6,5.79-8.92,8.79C29.83,27,26.12,30.48,23,33.87Zm21-.13c-.06-7,.07-13.18-.19-20.21q-5,10-9.73,20.27C37.65,33.75,41,33.79,44.13,33.74Zm.74,0c3.83,0,7,.06,10-.19-3.31-7-6.56-14-10.1-20.83C44.68,20.17,44.88,27.07,44.87,33.74ZM50.74,23c1.6,3.37,3.33,7,5,10.17.09.2-.18.48.06.44,3.24.16,5.75-.07,9.42,0-.19-.53-.7-.8-1.06-1.19C58.35,26.27,52.43,20.11,46.49,14.1c-.06,0-.09-.1-.12,0C47.72,17,49.31,20,50.74,23Zm9.48,4.06s-.08,0-.07.06.15.14.19.19c1.36,1.47,3.1,3.09,4.62,4.74.55.6,1.17,1.35,1.68,1.49a10.91,10.91,0,0,0,2.62,0c2.35,0,4.18.08,6.17.19,1.16.07,2.28.3,3.25.31,3.4.05,7.12-.06,10.35-.12-.09-2-.13-4.69-.37-7C79.44,26.91,69,27,60.22,27.07Z"/></g></g></svg>