<?xml version="1.0" encoding="utf-8"?>
<!-- Generator: Adobe Illustrator 23.0.1, SVG Export Plug-In . SVG Version: 6.00 Build 0)  -->
<svg version="1.1" id="Layer_1" xmlns="http://www.w3.org/2000/svg" xmlns:xlink="http://www.w3.org/1999/xlink" x="0px" y="0px"
	 viewBox="0 0 274 55" style="enable-background:new 0 0 274 55;" xml:space="preserve">
<title>Asset 2</title>
<g>
	<g id="VP">
		<polygon points="158,33 159,34 158,35 159,35 183,35 183,33 159,33 		"/>
		<path d="M157,33L157,33l-5.5-5.5L157,22l0,0l1-1l-1-1l0,0L137,0l0,0l-17,17l1,1l4,4h3l-4.5,4.5L117,20H91v2h26l5.5,5.5L117,33H91
			v2h26l6.5-6.5L128,33h-3l-4,4l-1,1l17,17l0,0l20-20l0,0l1-1L157,33z M125,20L125,20l-3-3l15-15l19,19l-5.5,5.5L146,22h8l1-1l-1-1
			h-10l-7-7l0,0l-7,7H125z M142,20h-10l5-5L142,20z M124.5,27.5L130,22h14l5.5,5.5L144,33h-14L124.5,27.5z M142,35l-5,5l-5-5H142z
			 M137,53l-15-15l3-3h5l7,7l0,0l7-7h10l1-1l-1-1h-8l4.5-4.5L156,34L137,53z"/>
		<polygon points="159,20 158,20 159,21 158,22 159,22 183,22 183,20 		"/>
		<polygon points="249,33 250,34 249,35 250,35 274,35 274,33 250,33 		"/>
		<path d="M248,33L248,33l-5.5-5.5L248,22l0,0l1-1l-1-1l0,0L228,0l0,0l-17,17l1,1l4,4h3l-4.5,4.5L208,20h-26v2h26l5.5,5.5L208,33
			h-26v2h26l6.5-6.5L219,33h-3l-4,4l-1,1l17,17l0,0l20-20l0,0l1-1L248,33z M216,20L216,20l-3-3l15-15l19,19l-5.5,5.5L237,22h8l1-1
			l-1-1h-10l-7-7l0,0l-7,7H216z M233,20h-10l5-5L233,20z M215.5,27.5L221,22h14l5.5,5.5L235,33h-14L215.5,27.5z M233,35l-5,5l-5-5
			H233z M228,53l-15-15l3-3h5l7,7l0,0l7-7h10l1-1l-1-1h-8l4.5-4.5L247,34L228,53z"/>
		<polygon points="250,20 249,20 250,21 249,22 250,22 274,22 274,20 		"/>
		<polygon points="67,33 68,34 67,35 68,35 92,35 92,33 68,33 		"/>
		<path d="M66,33L66,33l-5.5-5.5L66,22l0,0l1-1l-1-1l0,0L46,0l0,0L29,17l1,1l4,4h3l-4.5,4.5L26,20H0v2h26l5.5,5.5L26,33H0v2h26
			l6.5-6.5L37,33h-3l-4,4l-1,1l17,17l0,0l20-20l0,0l1-1L66,33z M34,20L34,20l-3-3L46,2l19,19l-5.5,5.5L55,22h8l1-1l-1-1H53l-7-7l0,0
			l-7,7H34z M51,20H41l5-5L51,20z M33.5,27.5L39,22h14l5.5,5.5L53,33H39L33.5,27.5z M51,35l-5,5l-5-5H51z M46,53L31,38l3-3h5l7,7
			l0,0l7-7h10l1-1l-1-1h-8l4.5-4.5L65,34L46,53z"/>
		<polygon points="68,20 67,20 68,21 67,22 68,22 92,22 92,20 		"/>
		<polygon points="158,33 159,34 158,35 159,35 183,35 183,33 159,33 		"/>
		<path d="M157,33L157,33l-5.5-5.5L157,22l0,0l1-1l-1-1l0,0L137,0l0,0l-17,17l1,1l4,4h3l-4.5,4.5L117,20H91v2h26l5.5,5.5L117,33H91
			v2h26l6.5-6.5L128,33h-3l-4,4l-1,1l17,17l0,0l20-20l0,0l1-1L157,33z M125,20L125,20l-3-3l15-15l19,19l-5.5,5.5L146,22h8l1-1l-1-1
			h-10l-7-7l0,0l-7,7H125z M142,20h-10l5-5L142,20z M124.5,27.5L130,22h14l5.5,5.5L144,33h-14L124.5,27.5z M142,35l-5,5l-5-5H142z
			 M137,53l-15-15l3-3h5l7,7l0,0l7-7h10l1-1l-1-1h-8l4.5-4.5L156,34L137,53z"/>
		<polygon points="159,20 158,20 159,21 158,22 159,22 183,22 183,20 		"/>
	</g>
</g>
</svg>
