<svg xmlns="http://www.w3.org/2000/svg" viewBox="0 0 83.26 34.82"><defs><style>.cls-1{fill:#231f20;fill-rule:evenodd;}</style></defs><title>Asset 2</title><g id="Layer_2" data-name="Layer 2"><g id="Layer_1-2" data-name="Layer 1"><path class="cls-1" d="M67.33,1c5.31,5.91,10.32,12.12,15.93,17.73-.34.95-1.27,1.49-1.94,2.15-4.73,4.67-10,9.05-14.62,13.92a48.8,48.8,0,0,0-6.51-.2c-9.92,0-20.41,0-30.55-.14-3.54-.06-8-.33-11.49-.14a5.5,5.5,0,0,1-1.18.14c-.69-.14-1.68-1.44-2.29-2.08-.78-.83-1.46-1.54-2.07-2.22C9.11,26.35,5.81,23,2.08,19c-.27-.29-.68-.62-1.11-1-.23-.22-1-.67-1-1s1.87-1.89,2.22-2.21C6.9,10.41,11.37,6.37,16,2.2c.76-.68,1.63-2,2.56-2.15A18.73,18.73,0,0,1,21.4.12c7,0,15.17.45,21.68.49C51.23.65,59.43,1.08,67.33,1ZM5.19,13.07c.38-.16.26.28.35.42a36.51,36.51,0,0,0,2.84,3c3.32-3.5,6.58-7,9.84-10.6a3.11,3.11,0,0,0,1,.28c2.44.27,5.06,0,7.62.07,7.19.17,14,.14,20.91.41,6.25.25,12.49,0,18.57.21,1.37,2,3.06,3.78,4.57,5.68s3.22,3.67,4.71,5.61c1-1,2.16-1.86,3.12-2.91C74.75,10.82,71,6.28,66.91,2c-8.25,0-15.54-.62-24.52-.62C35,1.37,28.05.91,20.29.88c-.89,0-1.9-.25-2.63.21.09,0-.51.21-.07.21C13.54,5.3,9.25,9.07,5.19,13.07ZM68,10.37c-.46-.56-1.74-2.46-2.43-2.63a15.63,15.63,0,0,0-3-.07c-1.07,0-2.16,0-3,0-10-.45-20.26-.21-29-.55-4.13-.17-8.33,0-12-.14-3.25,3.35-6.55,6.66-9.56,10.25,2.26,2.46,4.92,5.14,7.14,7.9a14.33,14.33,0,0,0,1.18,1.31,6,6,0,0,0,1.38,1.18,19,19,0,0,0,3,.07c2.5.07,4.87-.07,7.83-.07,11.66,0,22.15.06,32.62-.07a16.38,16.38,0,0,0,3,0,5.87,5.87,0,0,0,1.32-1c2.85-2.6,6-5.42,8.59-7.89C72.66,15.84,70.33,13.23,68,10.37ZM6.93,18.06c.14-.15.76-.68.76-.83s-.62-.62-.83-.83a24.07,24.07,0,0,0-2.5-2.64A40,40,0,0,0,1.11,17c1.18,1.13,2.07,2.54,3.46,3.46A32,32,0,0,0,6.93,18.06Zm72.52-2a16.26,16.26,0,0,0-3.33,2.7c.93,1.06,1.78,2.19,2.77,3.19a24.69,24.69,0,0,0,3-2.91A37.41,37.41,0,0,0,79.45,16.05ZM61.92,28.45c-6.81-.29-14.42-.19-22.23-.14-5.79.05-12,0-18.29.07-.83,0-1.64-.1-2.42-.07-.39,0-.69.24-1,.14s-.89-.83-1.25-1.24C13.9,24,11,20.77,8.24,17.85c-1.09,1.06-2.07,2.23-3.11,3.33,1.88,2.27,4.11,4.17,6.16,6.37,1.33,1.43,3,3.37,4.5,4.85a8.26,8.26,0,0,0,1.66,1.52,13.41,13.41,0,0,0,2.84-.07c7.18-.14,11.4-.07,18.57-.06,10,0,17.66,0,27.5.06q6.08-5.52,11.91-11.29c-1-1-1.78-2.32-2.91-3.25-3.31,3.12-6.85,6-10.11,9.21C64.19,28.16,63,28.5,61.92,28.45Z"/></g></g></svg>