<?xml version="1.0" encoding="utf-8"?>
<!-- Generator: Adobe Illustrator 23.0.1, SVG Export Plug-In . SVG Version: 6.00 Build 0)  -->
<svg version="1.1" id="Layer_1" xmlns="http://www.w3.org/2000/svg" xmlns:xlink="http://www.w3.org/1999/xlink" x="0px" y="0px"
	 viewBox="0 0 125 125" style="enable-background:new 0 0 125 125;" xml:space="preserve">
<title>Asset 1</title>
<g>
	<g id="VP">
		<path d="M123.6,0H0v125h125V0H123.6z M17.9,2.2h89.3v6.7h-6.7V5.5H24.5v3.4h-6.7V2.2z M31.9,100.5h14.2l0.7,0.8l6.7,7.2H26.8v-8
			L31.9,100.5z M26.8,98.2V80.9l9,8.3l8.3,9L26.8,98.2L26.8,98.2z M62.5,110.1l-0.3-0.3h0.6L62.5,110.1z M62.6,113.8h-0.3l0.1-0.1
			L62.6,113.8z M62,108.5h-1.3l-8.7-8h21l-8.7,8H62z M54.9,109.9l3.7,4H26.8v-4H54.9z M60.6,116.1l1.9,2.1l1.9-2.1h33.8v2.1H26.8
			v-2.1H60.6z M66.5,113.8l3.7-4h28.1v4H66.5z M71.5,108.5l6.7-7.2l0.7-0.8h19.3v8L71.5,108.5z M93.1,98.2H80.9l8.3-9l9-8.3v17.3
			H93.1z M96.4,77.3l-9.2,9.9l-9.9,9.2l-1.9,1.8H49.6l-1.9-1.8l-9.9-9.2l-9.2-9.9l-1.8-1.9V49.6l1.8-1.9l9.2-9.9l9.9-9.2l1.9-1.8
			h25.8l1.9,1.8l9.9,9.2l9.2,9.9l1.8,1.9v25.8L96.4,77.3z M62.5,14.9l0.3,0.3h-0.6L62.5,14.9z M62.4,11.2h0.3l-0.1,0.1L62.4,11.2z
			 M63,16.5h1.3l8.7,8H52l8.7-8H63z M54.9,15.1H26.8v-4h31.8L54.9,15.1z M53.6,16.5l-6.7,7.2l-0.7,0.8H26.8v-8L53.6,16.5z
			 M32.5,26.8h11.6l-8.3,9l-9,8.3V26.8H32.5z M89.2,35.8l-8.3-9h17.3v17.3L89.2,35.8z M92.5,24.6H78.8l-0.7-0.8l-6.7-7.2h26.8v8
			L92.5,24.6z M70.1,15.1l-3.7-4h31.8v4H70.1z M64.4,8.9l-1.9-2l-1.9,2H26.8v-2h71.4v2H64.4z M16.5,11.2h8v4h-8V11.2z M16.5,16.5h8
			v8h-8V16.5z M16.5,26.8h8v19.4l-0.8,0.7l-7.2,6.7L16.5,26.8z M16.5,63v-2.2l8-8.7v21l-8-8.7V63z M16.5,71.4l7.2,6.7l0.8,0.7v19.4
			h-8L16.5,71.4z M16.5,100.4h8v8h-8V100.4z M11,11h4.1v4.1H11V11z M11.1,98.2V66.5l4,3.7v28.1L11.1,98.2z M15.1,100.4v8h-4v-8H15.1
			z M11.1,62.6v-0.3l0,0l0.1,0.1C11.3,62.5,11.1,62.6,11.1,62.6z M14.8,62.5l0.3-0.3v0.6L14.8,62.5z M11.1,58.5V26.8h4v28.1
			L11.1,58.5z M11.1,24.5v-8h4v8H11.1z M11,109.9h4.1v4.1H11V109.9z M2.2,93.3V17.9h6.7v6.7H5.5v75.9h3.4v6.7H2.2V93.3z M8.9,64.4
			v33.8h-2V26.8h2v33.8l-2,1.9L8.9,64.4z M9.6,122.8H2.2v-7.4h7.4V122.8z M9.6,114H2.2v-4.6h6.7v0.5h0.7V114z M9.6,15.1H8.9v0.5H2.2
			V11h7.4V15.1z M9.6,9.6H2.2V2.2h7.4V9.6z M15.6,122.8H11v-7.4h4.1v0.7h0.5L15.6,122.8z M15.6,8.9h-0.5v0.7H11V2.2h4.6L15.6,8.9z
			 M16.5,109.9h8v4h-8V109.9z M107.2,122.8H17.9v-6.7h6.7v3.4h75.9v-3.4h6.7L107.2,122.8z M108.5,113.8h-8v-4h8V113.8z M108.5,108.5
			h-8v-8h8V108.5z M108.5,98.2h-8V78.8l0.8-0.7l7.2-6.7L108.5,98.2z M108.5,62.1v2.2l-8,8.7V52l8,8.7V62.1z M108.5,53.6l-7.2-6.7
			l-0.8-0.7V26.8h8L108.5,53.6z M108.5,24.6h-8v-8h8V24.6z M108.5,15.2h-8v-4h8V15.2z M114,122.8h-4.6v-6.7h0.5v-0.7h4.1V122.8z
			 M114,114h-4.1v-4.1h4.1V114z M113.8,26.8v31.8l-4-3.7V26.8H113.8z M109.8,24.6v-8h4v8H109.8z M113.8,62.4v0.3l0,0l-0.1-0.1
			C113.7,62.5,113.8,62.4,113.8,62.4z M110.2,62.5l-0.3,0.3v-0.6L110.2,62.5z M113.8,66.5v31.7h-4V70.1L113.8,66.5z M113.8,100.5v8
			h-4v-8H113.8z M114,15.1h-4.1V11h4.1V15.1z M114,9.6h-4.1V8.9h-0.5V2.2h4.6V9.6z M122.8,122.8h-7.4v-7.4h7.4V122.8z M122.8,114
			h-7.4v-4.1h0.7v-0.5h6.7L122.8,114z M122.8,32.2v74.9h-6.7v-6.7h3.4V24.5h-3.4v-6.7h6.7V32.2z M116.1,60.6V26.8h2.1v71.4h-2.1
			V64.4l2.1-1.9L116.1,60.6z M122.8,15.6h-6.7v-0.5h-0.7V11h7.4V15.6z M122.8,9.6h-7.4V2.2h7.4V9.6z"/>
	</g>
</g>
</svg>
